<?xml version="1.0" encoding="UTF-8" standalone="no"?>
<!DOCTYPE svg PUBLIC "-//W3C//DTD SVG 1.1//EN"
 "http://www.w3.org/Graphics/SVG/1.1/DTD/svg11.dtd">
<!-- Generated by graphviz version 2.40.1 (20161225.0304)
 -->
<!-- Title: %3 Pages: 1 -->
<svg width="764pt" height="279pt"
 viewBox="0.00 0.00 763.53 279.00" xmlns="http://www.w3.org/2000/svg" xmlns:xlink="http://www.w3.org/1999/xlink">
<g id="graph0" class="graph" transform="scale(1 1) rotate(0) translate(4 275)">
<title>%3</title>
<polygon fill="#ffffff" stroke="transparent" points="-4,4 -4,-275 759.5291,-275 759.5291,4 -4,4"/>
<g id="clust1" class="cluster">
<title>cluster_validator</title>
<polygon fill="none" stroke="#000000" points="337.5291,-8 337.5291,-155 747.5291,-155 747.5291,-8 337.5291,-8"/>
<text text-anchor="middle" x="542.5291" y="-139.8" font-family="Times,serif" font-size="14.00" fill="#000000">Validator (components/validator&#45;stack.md)</text>
</g>
<!-- db -->
<g id="node1" class="node">
<title>db</title>
<ellipse fill="none" stroke="#000000" cx="505.5291" cy="-34" rx="53.8905" ry="18"/>
<text text-anchor="middle" x="505.5291" y="-30.3" font-family="Times,serif" font-size="14.00" fill="#000000">Database</text>
</g>
<!-- worker -->
<g id="node2" class="node">
<title>worker</title>
<ellipse fill="none" stroke="#000000" cx="652.5291" cy="-106" rx="87.1846" ry="18"/>
<text text-anchor="middle" x="652.5291" y="-102.3" font-family="Times,serif" font-size="14.00" fill="#000000">validatorWorker</text>
</g>
<!-- worker&#45;&#45;db -->
<g id="edge1" class="edge">
<title>worker&#45;&#45;db</title>
<path fill="none" stroke="#000000" d="M618.4349,-89.3008C593.4993,-77.0874 559.9726,-60.6662 535.9431,-48.8966"/>
</g>
<!-- sentry -->
<g id="node3" class="node">
<title>sentry</title>
<ellipse fill="none" stroke="#000000" cx="505.5291" cy="-106" rx="42.4939" ry="18"/>
<text text-anchor="middle" x="505.5291" y="-102.3" font-family="Times,serif" font-size="14.00" fill="#000000">Sentry</text>
</g>
<!-- sentry&#45;&#45;db -->
<g id="edge2" class="edge">
<title>sentry&#45;&#45;db</title>
<path fill="none" stroke="#000000" d="M505.5291,-87.8314C505.5291,-77 505.5291,-63.2876 505.5291,-52.4133"/>
</g>
<!-- watcher -->
<g id="node4" class="node">
<title>watcher</title>
<ellipse fill="none" stroke="#000000" cx="395.5291" cy="-106" rx="50.0912" ry="18"/>
<text text-anchor="middle" x="395.5291" y="-102.3" font-family="Times,serif" font-size="14.00" fill="#000000">Watcher</text>
</g>
<!-- watcher&#45;&#45;db -->
<g id="edge3" class="edge">
<title>watcher&#45;&#45;db</title>
<path fill="none" stroke="#000000" d="M419.6691,-90.1993C437.7566,-78.3602 462.4276,-62.2119 480.6833,-50.2627"/>
</g>
<!-- ethereum -->
<g id="node6" class="node">
<title>ethereum</title>
<polygon fill="none" stroke="#000000" points="164.5291,-52 -.0292,-34 164.5291,-16 329.0875,-34 164.5291,-52"/>
<text text-anchor="middle" x="164.5291" y="-30.3" font-family="Times,serif" font-size="14.00" fill="#000000">the Ethereum network</text>
</g>
<!-- watcher&#45;&#45;ethereum -->
<g id="edge5" class="edge">
<title>watcher&#45;&#45;ethereum</title>
<path fill="none" stroke="#000000" d="M357.6429,-94.1913C316.4281,-81.3451 250.6728,-60.85 207.5458,-47.4078"/>
</g>
<!-- market -->
<g id="node5" class="node">
<title>market</title>
<ellipse fill="none" stroke="#000000" cx="468.5291" cy="-181" rx="44.6926" ry="18"/>
<text text-anchor="middle" x="468.5291" y="-177.3" font-family="Times,serif" font-size="14.00" fill="#000000">Market</text>
</g>
<!-- market&#45;&#45;sentry -->
<g id="edge4" class="edge">
<title>market&#45;&#45;sentry</title>
<path fill="none" stroke="#000000" d="M477.2976,-163.226C483.1957,-151.2704 490.9387,-135.5752 496.8236,-123.6464"/>
</g>
<!-- dapp -->
<g id="node7" class="node">
<title>dapp</title>
<polygon fill="none" stroke="#000000" points="422.5291,-271 368.5291,-271 368.5291,-235 422.5291,-235 422.5291,-271"/>
<text text-anchor="middle" x="395.5291" y="-249.3" font-family="Times,serif" font-size="14.00" fill="#000000">dApp</text>
</g>
<!-- dapp&#45;&#45;sentry -->
<g id="edge7" class="edge">
<title>dapp&#45;&#45;sentry</title>
<path fill="none" stroke="#000000" d="M393.9476,-234.7312C393.2619,-214.3417 395.5712,-181.757 414.5291,-163 427.417,-150.2488 438.4598,-163.3945 454.5291,-155 469.3302,-147.2681 482.7987,-133.9222 492.1732,-123.1094"/>
</g>
<!-- dapp&#45;&#45;market -->
<g id="edge6" class="edge">
<title>dapp&#45;&#45;market</title>
<path fill="none" stroke="#000000" d="M413.9501,-234.8314C425.4388,-223.5001 440.1244,-209.0157 451.3678,-197.9263"/>
</g>
<!-- dapp&#45;&#45;ethereum -->
<g id="edge8" class="edge">
<title>dapp&#45;&#45;ethereum</title>
<path fill="none" stroke="#000000" d="M376.2315,-234.7049C331.9902,-192.7618 223.8254,-90.216 181.7089,-50.2873"/>
</g>
<!-- SDK -->
<g id="node8" class="node">
<title>SDK</title>
<polygon fill="none" stroke="#000000" points="531.5291,-271 477.5291,-271 477.5291,-235 531.5291,-235 531.5291,-271"/>
<text text-anchor="middle" x="504.5291" y="-249.3" font-family="Times,serif" font-size="14.00" fill="#000000">SDK</text>
</g>
<!-- SDK&#45;&#45;sentry -->
<g id="edge9" class="edge">
<title>SDK&#45;&#45;sentry</title>
<path fill="none" stroke="#000000" d="M512.1971,-234.8756C516.143,-224.5642 520.5346,-211.2907 522.5291,-199 525.0921,-183.2066 524.8398,-178.8323 522.5291,-163 520.5755,-149.614 516.1697,-135.0019 512.333,-123.9238"/>
</g>
<!-- SDK&#45;&#45;market -->
<g id="edge10" class="edge">
<title>SDK&#45;&#45;market</title>
<path fill="none" stroke="#000000" d="M495.4448,-234.8314C489.9458,-223.8334 482.9616,-209.865 477.4859,-198.9134"/>
</g>
</g>
</svg>
