<?xml version="1.0" encoding="UTF-8" standalone="no"?>
<!DOCTYPE svg PUBLIC "-//W3C//DTD SVG 1.1//EN"
 "http://www.w3.org/Graphics/SVG/1.1/DTD/svg11.dtd">
<!-- Generated by graphviz version 2.40.1 (20161225.0304)
 -->
<!-- Title: %3 Pages: 1 -->
<svg width="764pt" height="279pt"
 viewBox="0.00 0.00 763.53 279.00" xmlns="http://www.w3.org/2000/svg" xmlns:xlink="http://www.w3.org/1999/xlink">
<g id="graph0" class="graph" transform="scale(1 1) rotate(0) translate(4 275)">
<title>%3</title>
<polygon fill="#ffffff" stroke="transparent" points="-4,4 -4,-275 759.5291,-275 759.5291,4 -4,4"/>
<g id="clust1" class="cluster">
<title>cluster_validator</title>
<polygon fill="none" stroke="#000000" points="8,-8 8,-155 418,-155 418,-8 8,-8"/>
<text text-anchor="middle" x="213" y="-139.8" font-family="Times,serif" font-size="14.00" fill="#000000">Validator (components/validator&#45;stack.md)</text>
</g>
<!-- db -->
<g id="node1" class="node">
<title>db</title>
<ellipse fill="none" stroke="#000000" cx="205" cy="-34" rx="53.8905" ry="18"/>
<text text-anchor="middle" x="205" y="-30.3" font-family="Times,serif" font-size="14.00" fill="#000000">Database</text>
</g>
<!-- worker -->
<g id="node2" class="node">
<title>worker</title>
<ellipse fill="none" stroke="#000000" cx="205" cy="-106" rx="87.1846" ry="18"/>
<text text-anchor="middle" x="205" y="-102.3" font-family="Times,serif" font-size="14.00" fill="#000000">validatorWorker</text>
</g>
<!-- worker&#45;&#45;db -->
<g id="edge1" class="edge">
<title>worker&#45;&#45;db</title>
<path fill="none" stroke="#000000" d="M205,-87.8314C205,-77 205,-63.2876 205,-52.4133"/>
</g>
<!-- sentry -->
<g id="node3" class="node">
<title>sentry</title>
<ellipse fill="none" stroke="#000000" cx="58" cy="-106" rx="42.4939" ry="18"/>
<text text-anchor="middle" x="58" y="-102.3" font-family="Times,serif" font-size="14.00" fill="#000000">Sentry</text>
</g>
<!-- sentry&#45;&#45;db -->
<g id="edge2" class="edge">
<title>sentry&#45;&#45;db</title>
<path fill="none" stroke="#000000" d="M85.9956,-92.2879C111.3194,-79.8844 148.5249,-61.6613 174.575,-48.9021"/>
</g>
<!-- watcher -->
<g id="node4" class="node">
<title>watcher</title>
<ellipse fill="none" stroke="#000000" cx="360" cy="-106" rx="50.0912" ry="18"/>
<text text-anchor="middle" x="360" y="-102.3" font-family="Times,serif" font-size="14.00" fill="#000000">Watcher</text>
</g>
<!-- watcher&#45;&#45;db -->
<g id="edge3" class="edge">
<title>watcher&#45;&#45;db</title>
<path fill="none" stroke="#000000" d="M329.006,-91.6028C302.2373,-79.1683 263.722,-61.2773 236.7384,-48.743"/>
</g>
<!-- ethereum -->
<g id="node7" class="node">
<title>ethereum</title>
<polygon fill="none" stroke="#000000" points="591,-52 426.4417,-34 591,-16 755.5583,-34 591,-52"/>
<text text-anchor="middle" x="591" y="-30.3" font-family="Times,serif" font-size="14.00" fill="#000000">the Ethereum network</text>
</g>
<!-- watcher&#45;&#45;ethereum -->
<g id="edge5" class="edge">
<title>watcher&#45;&#45;ethereum</title>
<path fill="none" stroke="#000000" d="M397.8863,-94.1913C439.1011,-81.3451 504.8563,-60.85 547.9833,-47.4078"/>
</g>
<!-- dapp -->
<g id="node5" class="node">
<title>dapp</title>
<ellipse fill="none" stroke="#000000" cx="131" cy="-253" rx="35.194" ry="18"/>
<text text-anchor="middle" x="131" y="-249.3" font-family="Times,serif" font-size="14.00" fill="#000000">dApp</text>
</g>
<!-- dapp&#45;&#45;sentry -->
<g id="edge7" class="edge">
<title>dapp&#45;&#45;sentry</title>
<path fill="none" stroke="#000000" d="M111.1,-238.1138C99.3877,-228.2883 85.2898,-214.413 77,-199 64.1983,-175.1982 60.0012,-143.7252 58.6378,-124.178"/>
</g>
<!-- market -->
<g id="node6" class="node">
<title>market</title>
<ellipse fill="none" stroke="#000000" cx="131" cy="-181" rx="44.6926" ry="18"/>
<text text-anchor="middle" x="131" y="-177.3" font-family="Times,serif" font-size="14.00" fill="#000000">Market</text>
</g>
<!-- dapp&#45;&#45;market -->
<g id="edge6" class="edge">
<title>dapp&#45;&#45;market</title>
<path fill="none" stroke="#000000" d="M131,-234.8314C131,-224 131,-210.2876 131,-199.4133"/>
</g>
<!-- dapp&#45;&#45;ethereum -->
<g id="edge8" class="edge">
<title>dapp&#45;&#45;ethereum</title>
<path fill="none" stroke="#000000" d="M163.2438,-245.4878C218.28,-231.9446 333.0251,-200.5442 422,-155 481.1037,-124.7462 542.5515,-75.4734 572.4407,-50.1506"/>
</g>
<!-- market&#45;&#45;sentry -->
<g id="edge4" class="edge">
<title>market&#45;&#45;sentry</title>
<path fill="none" stroke="#000000" d="M114.4352,-163.9813C102.4041,-151.6207 86.2047,-134.9775 74.2478,-122.693"/>
</g>
</g>
</svg>
