<svg xmlns="http://www.w3.org/2000/svg" viewBox="0 0 24 38.99"><defs><style>.a{fill:#FFF;}</style></defs><title>ADX-icon</title><polygon class="a" points="24 27.05 16.48 19.52 24 12 19.52 7.52 12 15.05 4.47 7.52 0 12 7.53 19.52 0 27.05 4.47 31.52 12 24 19.52 31.52 24 27.05"/><polyline class="a" points="9.39 2.61 5.66 6.34 9.36 10.05 12 7.37 14.66 10.05 18.36 6.34 14.61 2.61 12 0 9.39 2.61"/><polyline class="a" points="9.39 36.38 5.66 32.64 9.36 28.94 12 31.62 14.66 28.94 18.36 32.64 14.61 36.38 12 38.99 9.39 36.38"/></svg>
