<?xml version="1.0" encoding="UTF-8" standalone="no"?>
<!DOCTYPE svg PUBLIC "-//W3C//DTD SVG 1.1//EN"
 "http://www.w3.org/Graphics/SVG/1.1/DTD/svg11.dtd">
<!-- Generated by graphviz version 2.44.0 (0)
 -->
<!-- Pages: 1 -->
<svg width="644pt" height="279pt"
 viewBox="0.00 0.00 643.53 279.00" xmlns="http://www.w3.org/2000/svg" xmlns:xlink="http://www.w3.org/1999/xlink">
<g id="graph0" class="graph" transform="scale(1 1) rotate(0) translate(4 275)">
<polygon fill="white" stroke="transparent" points="-4,4 -4,-275 639.53,-275 639.53,4 -4,4"/>
<g id="clust1" class="cluster">
<title>cluster_validator</title>
<polygon fill="none" stroke="black" points="8,-8 8,-155 298,-155 298,-8 8,-8"/>
<text text-anchor="middle" x="153" y="-139.8" font-family="Times,serif" font-size="14.00">Validator</text>
</g>
<!-- db -->
<g id="node1" class="node">
<title>db</title>
<ellipse fill="none" stroke="black" cx="168" cy="-34" rx="53.89" ry="18"/>
<text text-anchor="middle" x="168" y="-30.3" font-family="Times,serif" font-size="14.00">Database</text>
</g>
<!-- worker -->
<g id="node2" class="node">
<title>worker</title>
<ellipse fill="none" stroke="black" cx="102" cy="-106" rx="85.59" ry="18"/>
<text text-anchor="middle" x="102" y="-102.3" font-family="Times,serif" font-size="14.00">validatorWorker</text>
</g>
<!-- worker&#45;&#45;db -->
<g id="edge1" class="edge">
<title>worker&#45;&#45;db</title>
<path fill="none" stroke="black" d="M117.98,-88.05C128.51,-76.89 142.22,-62.34 152.62,-51.31"/>
</g>
<!-- sentry -->
<g id="node3" class="node">
<title>sentry</title>
<ellipse fill="none" stroke="black" cx="248" cy="-106" rx="42.49" ry="18"/>
<text text-anchor="middle" x="248" y="-102.3" font-family="Times,serif" font-size="14.00">Sentry</text>
</g>
<!-- sentry&#45;&#45;db -->
<g id="edge2" class="edge">
<title>sentry&#45;&#45;db</title>
<path fill="none" stroke="black" d="M230.25,-89.46C217.17,-78.03 199.45,-62.52 186.26,-50.98"/>
</g>
<!-- ethereum -->
<g id="node5" class="node">
<title>ethereum</title>
<polygon fill="none" stroke="black" points="471,-52 306.44,-34 471,-16 635.56,-34 471,-52"/>
<text text-anchor="middle" x="471" y="-30.3" font-family="Times,serif" font-size="14.00">the Ethereum network</text>
</g>
<!-- sentry&#45;&#45;ethereum -->
<g id="edge7" class="edge">
<title>sentry&#45;&#45;ethereum</title>
<path fill="none" stroke="black" d="M280.9,-94.67C320.76,-82.16 387.89,-61.09 430.78,-47.62"/>
</g>
<!-- market -->
<g id="node4" class="node">
<title>market</title>
<ellipse fill="none" stroke="black" cx="248" cy="-181" rx="44.39" ry="18"/>
<text text-anchor="middle" x="248" y="-177.3" font-family="Times,serif" font-size="14.00">Market</text>
</g>
<!-- market&#45;&#45;sentry -->
<g id="edge3" class="edge">
<title>market&#45;&#45;sentry</title>
<path fill="none" stroke="black" d="M248,-162.7C248,-151.06 248,-135.79 248,-124.18"/>
</g>
<!-- platform -->
<g id="node6" class="node">
<title>platform</title>
<polygon fill="none" stroke="black" points="370.5,-271 291.5,-271 291.5,-235 370.5,-235 370.5,-271"/>
<text text-anchor="middle" x="331" y="-249.3" font-family="Times,serif" font-size="14.00">Platform</text>
</g>
<!-- platform&#45;&#45;sentry -->
<g id="edge5" class="edge">
<title>platform&#45;&#45;sentry</title>
<path fill="none" stroke="black" d="M327.58,-235C323.32,-216.36 314.87,-186.06 301,-163 291.69,-147.51 277.46,-132.79 266.09,-122.33"/>
</g>
<!-- platform&#45;&#45;market -->
<g id="edge4" class="edge">
<title>platform&#45;&#45;market</title>
<path fill="none" stroke="black" d="M310.48,-234.7C296.95,-223.28 279.37,-208.45 266.3,-197.44"/>
</g>
<!-- platform&#45;&#45;ethereum -->
<g id="edge6" class="edge">
<title>platform&#45;&#45;ethereum</title>
<path fill="none" stroke="black" d="M341.99,-234.97C368.35,-194.11 434.92,-90.92 460.64,-51.06"/>
</g>
<!-- AdView -->
<g id="node7" class="node">
<title>AdView</title>
<polygon fill="none" stroke="black" points="273,-271 203,-271 203,-235 273,-235 273,-271"/>
<text text-anchor="middle" x="238" y="-249.3" font-family="Times,serif" font-size="14.00">AdView</text>
</g>
<!-- AdView&#45;&#45;market -->
<g id="edge8" class="edge">
<title>AdView&#45;&#45;market</title>
<path fill="none" stroke="black" d="M240.47,-234.7C242.02,-223.85 244.01,-209.92 245.56,-199.1"/>
</g>
</g>
</svg>
