<?xml version="1.0" encoding="UTF-8" standalone="no"?>
<!DOCTYPE svg PUBLIC "-//W3C//DTD SVG 1.1//EN"
 "http://www.w3.org/Graphics/SVG/1.1/DTD/svg11.dtd">
<!-- Generated by graphviz version 2.40.1 (20161225.0304)
 -->
<!-- Title: %3 Pages: 1 -->
<svg width="885pt" height="207pt"
 viewBox="0.00 0.00 884.53 207.00" xmlns="http://www.w3.org/2000/svg" xmlns:xlink="http://www.w3.org/1999/xlink">
<g id="graph0" class="graph" transform="scale(1 1) rotate(0) translate(4 203)">
<title>%3</title>
<polygon fill="#ffffff" stroke="transparent" points="-4,4 -4,-203 880.5291,-203 880.5291,4 -4,4"/>
<g id="clust1" class="cluster">
<title>cluster_adexNetwork</title>
<polygon fill="none" stroke="#000000" points="8,-8 8,-155 499,-155 499,-8 8,-8"/>
<text text-anchor="middle" x="253.5" y="-139.8" font-family="Times,serif" font-size="14.00" fill="#000000">The AdEx Network (many validators and markets can exist)</text>
</g>
<!-- vstack1 -->
<g id="node1" class="node">
<title>vstack1</title>
<ellipse fill="none" stroke="#000000" cx="438" cy="-106" rx="52.7911" ry="18"/>
<text text-anchor="middle" x="438" y="-102.3" font-family="Times,serif" font-size="14.00" fill="#000000">Validator</text>
</g>
<!-- market -->
<g id="node5" class="node">
<title>market</title>
<ellipse fill="none" stroke="#000000" cx="315" cy="-34" rx="44.6926" ry="18"/>
<text text-anchor="middle" x="315" y="-30.3" font-family="Times,serif" font-size="14.00" fill="#000000">Market</text>
</g>
<!-- vstack1&#45;&#45;market -->
<g id="edge1" class="edge">
<title>vstack1&#45;&#45;market</title>
<path fill="none" stroke="#000000" d="M411.3108,-90.3771C390.2557,-78.0521 361.0838,-60.9759 340.3761,-48.8543"/>
</g>
<!-- vstack2 -->
<g id="node2" class="node">
<title>vstack2</title>
<ellipse fill="none" stroke="#000000" cx="315" cy="-106" rx="52.7911" ry="18"/>
<text text-anchor="middle" x="315" y="-102.3" font-family="Times,serif" font-size="14.00" fill="#000000">Validator</text>
</g>
<!-- vstack2&#45;&#45;market -->
<g id="edge2" class="edge">
<title>vstack2&#45;&#45;market</title>
<path fill="none" stroke="#000000" d="M315,-87.8314C315,-77 315,-63.2876 315,-52.4133"/>
</g>
<!-- vstack3 -->
<g id="node3" class="node">
<title>vstack3</title>
<ellipse fill="none" stroke="#000000" cx="192" cy="-106" rx="52.7911" ry="18"/>
<text text-anchor="middle" x="192" y="-102.3" font-family="Times,serif" font-size="14.00" fill="#000000">Validator</text>
</g>
<!-- vstack3&#45;&#45;market -->
<g id="edge3" class="edge">
<title>vstack3&#45;&#45;market</title>
<path fill="none" stroke="#000000" d="M218.6892,-90.3771C239.7443,-78.0521 268.9162,-60.9759 289.6239,-48.8543"/>
</g>
<!-- vstack4 -->
<g id="node4" class="node">
<title>vstack4</title>
<ellipse fill="none" stroke="#000000" cx="69" cy="-106" rx="52.7911" ry="18"/>
<text text-anchor="middle" x="69" y="-102.3" font-family="Times,serif" font-size="14.00" fill="#000000">Validator</text>
</g>
<!-- vstack4&#45;&#45;market -->
<g id="edge4" class="edge">
<title>vstack4&#45;&#45;market</title>
<path fill="none" stroke="#000000" d="M109.0263,-94.1707C116.0164,-92.1101 123.2193,-89.99 130,-88 181.5273,-72.8774 241.1622,-55.4914 278.4847,-44.6242"/>
</g>
<!-- ethereum -->
<g id="node6" class="node">
<title>ethereum</title>
<polygon fill="none" stroke="#000000" points="712,-124 547.4417,-106 712,-88 876.5583,-106 712,-124"/>
<text text-anchor="middle" x="712" y="-102.3" font-family="Times,serif" font-size="14.00" fill="#000000">the Ethereum network</text>
</g>
<!-- dapp -->
<g id="node7" class="node">
<title>dapp</title>
<ellipse fill="none" stroke="#000000" cx="478" cy="-181" rx="35.194" ry="18"/>
<text text-anchor="middle" x="478" y="-177.3" font-family="Times,serif" font-size="14.00" fill="#000000">dApp</text>
</g>
<!-- dapp&#45;&#45;vstack1 -->
<g id="edge6" class="edge">
<title>dapp&#45;&#45;vstack1</title>
<path fill="none" stroke="#000000" stroke-dasharray="5,2" d="M468.7227,-163.605C462.3529,-151.6616 453.9229,-135.8554 447.5048,-123.8215"/>
</g>
<!-- dapp&#45;&#45;vstack3 -->
<g id="edge7" class="edge">
<title>dapp&#45;&#45;vstack3</title>
<path fill="none" stroke="#000000" stroke-dasharray="5,2" d="M442.9821,-179.322C388.5636,-176.3188 286.4692,-168.9887 253,-155 235.9548,-147.8758 219.8043,-134.492 208.4085,-123.51"/>
</g>
<!-- dapp&#45;&#45;market -->
<g id="edge5" class="edge">
<title>dapp&#45;&#45;market</title>
<path fill="none" stroke="#000000" stroke-width="2" d="M494.366,-165.0589C496.6725,-161.9551 498.6984,-158.5534 500,-155 510.2423,-127.0391 517.8642,-111.8241 500,-88 482.8884,-65.1796 406.5083,-48.8036 357.3975,-40.4104"/>
</g>
<!-- dapp&#45;&#45;ethereum -->
<g id="edge8" class="edge">
<title>dapp&#45;&#45;ethereum</title>
<path fill="none" stroke="#000000" d="M508.1124,-171.3486C549.2168,-158.1741 623.0995,-134.4938 669.7355,-119.5463"/>
</g>
</g>
</svg>
